<svg width="44" height="20" viewBox="0 0 44 20" fill="none" xmlns="http://www.w3.org/2000/svg"><path d="M25.943 0.932972C21.734 0.932972 15.6451 3.13967 11.3951 3.18054C11.3951 2.85362 11.2317 2.15892 10.5778 2.15892H3.09958C0.811144 2.15892 0.0755767 3.30313 0.0755767 11.7213C0.0755767 17.6467 0.443361 19.3222 2.32314 19.3222C3.83514 19.3222 5.75579 18.2188 6.57309 18.2188C7.39039 18.2188 8.5346 19.1996 9.67882 19.1996C11.3951 19.1996 11.9264 17.0337 11.9264 14.5818H8.90239C9.18844 15.7669 9.59709 16.7068 10.1283 17.565L9.80141 17.8102C8.61633 15.9712 8.00336 13.6419 8.00336 10.6588C8.00336 8.00259 8.49374 5.50984 9.55623 3.50746L9.88314 3.67092C8.94325 5.6733 8.45287 8.12519 8.45287 10.5771C8.45287 11.803 8.57547 13.029 8.82066 14.1732H12.2533C13.6836 15.7261 15.8903 16.7068 20.508 16.7068C21.8157 16.7068 22.919 16.6251 24.0633 16.0121C24.8806 16.7885 25.9839 17.4015 27.3733 17.6058V17.7284C27.169 17.7693 26.9647 17.7693 26.7603 17.7693C25.5753 17.7693 24.5128 17.1972 23.8998 16.5025C23.6137 16.6659 23.2868 16.8294 22.8373 16.952C23.532 17.565 24.8806 18.4231 27.0055 18.4231C27.8228 18.4231 29.3757 18.3005 29.3757 16.7477C29.3757 14.3775 25.7796 13.1924 25.4118 13.1924L25.5344 12.9064C26.5151 12.9064 29.2531 13.9689 29.6617 14.9905C30.3156 14.9905 31.6641 14.3775 31.6641 13.0698C31.6641 10.5362 27.2916 9.31027 26.4743 9.22854L26.5969 8.94249C29.1714 8.94249 31.5415 10.4954 32.0728 11.5578C33.2987 11.5578 34.0343 10.904 34.0343 9.80065C34.0343 6.85838 28.8036 5.50984 27.4142 5.50984L27.5368 5.22378C30.6016 5.22378 31.4598 5.83676 31.4598 5.83676C31.4598 5.83676 31.7458 5.5507 33.9526 5.5507C38.1616 5.5507 39.0607 6.57232 40.8587 6.57232C42.902 6.57232 43.5558 5.26465 43.5558 4.32476C43.5558 3.38486 30.3564 0.932972 25.943 0.932972Z" fill="#876C4E"/></svg>
