<svg width="44" height="20" viewBox="0 0 44 20" fill="none" xmlns="http://www.w3.org/2000/svg"><path d="M18.1109 0.932972C22.32 0.932972 28.4089 3.13967 32.6588 3.18054C32.6588 2.85362 32.8223 2.15892 33.4761 2.15892H40.9544C43.2428 2.15892 43.9784 3.30313 43.9784 11.7213C43.9784 17.6467 43.6106 19.3222 41.7308 19.3222C40.2188 19.3222 38.2982 18.2188 37.4809 18.2188C36.6636 18.2188 35.5194 19.1996 34.3751 19.1996C32.6588 19.1996 32.1276 17.0337 32.1276 14.5818H35.1516C34.8655 15.7669 34.4569 16.7068 33.9256 17.565L34.2525 17.8102C35.4376 15.9712 36.0506 13.6419 36.0506 10.6588C36.0506 8.00259 35.5602 5.50984 34.4977 3.50746L34.1708 3.67092C35.1107 5.6733 35.6011 8.12519 35.6011 10.5771C35.6011 11.803 35.4785 13.029 35.2333 14.1732H31.8006C30.3704 15.7261 28.1637 16.7068 23.5459 16.7068C22.2383 16.7068 21.1349 16.6251 19.9907 16.0121C19.1734 16.7885 18.0701 17.4015 16.6806 17.6058V17.7284C16.885 17.7693 17.0893 17.7693 17.2936 17.7693C18.4787 17.7693 19.5412 17.1972 20.1542 16.5025C20.4402 16.6659 20.7671 16.8294 21.2166 16.952C20.5219 17.565 19.1734 18.4231 17.0484 18.4231C16.2311 18.4231 14.6783 18.3005 14.6783 16.7477C14.6783 14.3775 18.2744 13.1924 18.6422 13.1924L18.5196 12.9064C17.5388 12.9064 14.8009 13.9689 14.3922 14.9905C13.7384 14.9905 12.3898 14.3775 12.3898 13.0698C12.3898 10.5362 16.7624 9.31027 17.5797 9.22854L17.4571 8.94249C14.8826 8.94249 12.5124 10.4954 11.9812 11.5578C10.7552 11.5578 10.0197 10.904 10.0197 9.80065C10.0197 6.85838 15.2504 5.50984 16.6398 5.50984L16.5172 5.22378C13.4523 5.22378 12.5942 5.83676 12.5942 5.83676C12.5942 5.83676 12.3081 5.5507 10.1014 5.5507C5.89232 5.5507 4.9933 6.57232 3.19524 6.57232C1.152 6.57232 0.498158 5.26465 0.498158 4.32476C0.498158 3.38486 13.6975 0.932972 18.1109 0.932972Z" fill="#A8ADB4"/></svg>
