<svg width="827" height="406" viewBox="0 0 827 406" fill="none" xmlns="http://www.w3.org/2000/svg">
<path d="M1224.11 -326.171C1143.87 -264.264 1011.1 -87.413 1121.86 124.727C1260.31 389.902 861.379 760.678 715.214 691.619C598.282 636.371 541.336 871.531 527.479 996.017" stroke="#876C4E"/>
<path d="M715.36 -524.076C656.797 -441.829 567.307 -240.686 677.848 -94.0916C816.024 89.1518 531.124 553.132 406.294 544.018C306.431 536.727 283.946 762.249 285.187 875.921" stroke="#876C4E"/>
<path d="M1198.45 -334.911C1119.11 -271.896 988.272 -93.6726 1099.65 115.099C1238.87 376.063 844.766 751.955 699.099 686.037C582.565 633.303 527.439 868.066 514.443 992.04" stroke="#876C4E"/>
<path d="M1172.95 -343.704C1094.51 -279.594 965.628 -100.02 1077.55 105.401C1217.46 362.176 828.25 743.122 683.136 680.322C567.045 630.083 513.721 864.441 501.57 987.9" stroke="#876C4E"/>
<path d="M1147.59 -352.552C1070.08 -287.361 943.164 -106.456 1055.57 95.6327C1196.08 348.243 811.831 734.179 667.325 674.474C551.721 626.709 500.18 860.654 488.86 983.597" stroke="#876C4E"/>
<path d="M1122.39 -361.459C1045.82 -295.199 920.878 -112.984 1033.7 85.7927C1174.73 334.263 795.506 725.125 651.663 668.488C536.588 623.179 486.812 856.703 476.308 979.128" stroke="#876C4E"/>
<path d="M1097.34 -370.426C1021.72 -303.111 898.767 -119.608 1011.94 75.8787C1153.42 320.237 779.274 715.958 636.147 662.364C521.645 619.49 473.616 852.584 463.914 974.491" stroke="#876C4E"/>
<path d="M1072.43 -379.457C997.774 -311.099 876.831 -126.329 990.296 65.8891C1132.13 306.162 763.134 706.677 620.777 656.1C506.891 615.638 460.59 848.297 451.675 969.684" stroke="#876C4E"/>
<path d="M1047.67 -388.553C973.992 -319.167 855.066 -133.151 968.756 55.8224C1110.87 292.04 747.085 697.282 605.55 649.693C492.322 611.622 447.731 843.838 439.589 964.705" stroke="#876C4E"/>
<path d="M1023.05 -397.718C950.369 -327.317 833.473 -140.077 947.324 45.6768C1089.64 277.869 731.126 687.771 590.465 643.142C477.937 607.439 435.038 839.206 427.655 959.552" stroke="#876C4E"/>
<path d="M998.572 -406.952C926.902 -335.551 812.048 -147.109 925.998 35.4507C1068.44 263.65 715.254 678.143 575.519 636.444C463.732 603.085 422.507 834.398 415.868 954.224" stroke="#876C4E"/>
<path d="M974.238 -416.259C903.589 -343.872 790.79 -154.249 904.777 25.1429C1047.26 249.383 699.469 668.398 560.712 629.599C449.705 598.56 410.137 829.412 404.229 948.718" stroke="#876C4E"/>
<path d="M950.042 -425.642C880.429 -352.282 769.695 -161.501 883.659 14.7512C1026.11 235.066 683.768 658.533 546.038 622.604C435.854 593.86 397.925 824.246 392.733 943.032" stroke="#876C4E"/>
<path d="M925.984 -435.101C857.42 -360.785 748.762 -168.867 862.643 4.27421C1004.99 220.7 668.152 648.548 531.499 615.456C422.176 588.983 385.868 818.898 381.379 937.165" stroke="#876C4E"/>
<path d="M902.061 -444.641C834.559 -369.382 727.99 -176.349 841.727 -6.28999C983.899 206.284 652.617 638.442 517.09 608.155C408.669 583.925 373.964 813.366 370.164 931.115" stroke="#876C4E"/>
<path d="M878.274 -454.261C811.846 -378.075 707.376 -183.949 820.911 -16.9406C962.83 191.82 637.164 628.215 502.812 600.699C395.33 578.687 362.211 807.648 359.087 924.881" stroke="#876C4E"/>
<path d="M854.618 -463.967C789.278 -386.868 686.917 -191.672 800.192 -27.6826C941.787 177.304 621.789 617.864 488.659 593.086C382.156 573.263 350.606 801.742 348.145 918.459" stroke="#876C4E"/>
<path d="M831.092 -473.758C766.852 -395.762 666.612 -199.518 779.57 -38.5151C920.768 162.739 606.492 607.39 474.632 585.314C369.144 567.653 339.147 795.645 337.335 911.849" stroke="#876C4E"/>
<path d="M807.696 -483.637C744.568 -404.759 646.457 -207.49 759.042 -49.4396C899.773 148.123 591.272 596.791 460.728 577.382C356.292 561.854 327.831 789.357 326.654 905.05" stroke="#876C4E"/>
<path d="M784.427 -493.606C722.422 -413.862 626.453 -215.59 738.608 -60.4581C878.802 133.457 576.126 586.067 446.944 569.288C343.599 555.865 316.656 782.876 316.103 898.059" stroke="#876C4E"/>
<path d="M761.282 -503.668C700.413 -423.073 606.594 -223.822 718.265 -71.5721C857.853 118.74 561.054 575.216 433.279 561.03C331.058 549.681 305.618 776.198 305.675 890.875" stroke="#876C4E"/>
<path d="M738.26 -513.824C678.539 -432.395 586.879 -232.186 698.012 -82.7827C836.927 103.972 546.053 564.238 419.729 552.608C318.67 543.303 294.715 769.323 295.371 883.496" stroke="#876C4E"/>
</svg>
