<svg width="331" height="124" viewBox="0 0 331 124" fill="none" xmlns="http://www.w3.org/2000/svg">
<path d="M413.023 -67.9693C387.439 -45.6881 346.577 16.0481 387.804 84.743C439.337 170.612 313.379 302.438 263.162 282.261C222.989 266.119 208.627 345.836 206.467 387.712" stroke="#876C4E"/>
<path d="M239.079 -124.007C221.141 -95.3587 195.228 -26.3637 235.079 20.4314C284.892 78.9254 198.894 239.635 156.997 239.067C123.48 238.613 120.442 314.425 123.113 352.388" stroke="#876C4E"/>
<path d="M404.275 -70.3805C379.012 -47.747 338.826 14.4093 380.19 81.9662C431.896 166.412 307.654 299.852 257.666 280.715C217.676 265.406 203.914 344.954 202.032 386.642" stroke="#876C4E"/>
<path d="M395.578 -72.8125C370.639 -49.8312 331.132 12.738 372.614 79.1641C424.466 162.197 301.96 297.228 252.219 279.122C212.426 264.638 199.258 344.015 197.648 385.514" stroke="#876C4E"/>
<path d="M386.93 -75.2662C362.321 -51.9417 323.497 11.0331 365.074 76.3362C417.045 157.965 296.295 294.566 246.819 277.482C207.237 263.815 194.657 343.018 193.315 384.328" stroke="#876C4E"/>
<path d="M378.33 -77.7424C354.056 -54.0793 315.92 9.29383 357.57 73.482C409.633 153.717 290.66 291.864 241.466 275.793C202.11 262.935 190.111 341.963 189.032 383.084" stroke="#876C4E"/>
<path d="M369.779 -80.2418C345.844 -56.2449 308.4 7.51924 350.102 70.6008C402.23 149.453 285.054 289.123 236.159 274.054C197.044 261.999 185.62 340.849 184.798 381.78" stroke="#876C4E"/>
<path d="M361.276 -82.7654C337.685 -58.4395 300.935 5.70833 342.669 67.6921C394.836 145.172 279.476 286.342 230.898 272.266C192.036 261.005 181.182 339.674 180.612 380.417" stroke="#876C4E"/>
<path d="M352.821 -85.3137C329.577 -60.6635 293.527 3.86046 335.271 64.7555C387.452 140.874 273.926 283.521 225.683 270.427C187.088 259.952 176.796 338.439 176.475 378.993" stroke="#876C4E"/>
<path d="M344.412 -87.8875C321.521 -62.9181 286.173 1.97467 327.908 61.7904C380.075 136.56 268.404 280.659 220.511 268.537C182.198 258.839 172.462 337.143 172.384 377.508" stroke="#876C4E"/>
<path d="M336.049 -90.4877C313.515 -65.204 278.874 0.0500984 320.578 58.7964C372.708 132.229 262.908 277.757 215.384 266.595C177.364 257.666 168.179 335.785 168.339 375.961" stroke="#876C4E"/>
<path d="M327.732 -93.115C305.559 -67.522 271.628 -1.91412 313.281 55.7729C365.348 127.882 257.44 274.813 210.299 264.602C172.587 256.433 163.946 334.365 164.34 374.352" stroke="#876C4E"/>
<path d="M319.46 -95.7701C297.653 -69.8729 264.434 -3.91879 306.018 52.7194C357.997 123.517 251.997 271.828 205.257 262.555C167.865 255.137 159.763 332.881 160.386 372.68" stroke="#876C4E"/>
<path d="M311.232 -98.4538C289.795 -72.2575 257.293 -5.96472 298.787 49.6354C350.654 119.136 246.58 268.801 200.256 260.455C163.197 253.778 155.627 331.333 156.475 370.945" stroke="#876C4E"/>
<path d="M303.048 -101.167C281.984 -74.6766 250.202 -8.05285 291.587 46.5203C343.318 114.737 241.188 265.733 195.296 258.301C158.583 252.356 151.539 329.721 152.607 369.146" stroke="#876C4E"/>
<path d="M294.908 -103.91C274.221 -77.1308 243.163 -10.1836 284.419 43.3741C335.99 110.321 235.821 262.622 190.376 256.093C154.021 250.871 147.498 328.043 148.781 367.282" stroke="#876C4E"/>
<path d="M286.81 -106.683C266.505 -79.6212 236.172 -12.3582 277.282 40.1957C328.67 105.888 230.478 259.468 185.496 253.83C149.511 249.32 143.503 326.3 144.997 365.353" stroke="#876C4E"/>
<path d="M278.754 -109.488C258.834 -82.1482 229.231 -14.5772 270.176 36.9851C321.357 101.438 225.158 256.271 180.654 251.511C145.051 247.703 139.552 324.49 141.253 363.359" stroke="#876C4E"/>
<path d="M270.739 -112.325C251.209 -84.7126 222.338 -16.8412 263.099 33.7417C314.05 96.9704 219.861 253.031 175.85 249.136C140.641 246.02 135.646 322.613 137.549 361.299" stroke="#876C4E"/>
<path d="M262.765 -115.195C243.627 -87.3151 215.491 -19.1512 256.051 30.4651C306.751 92.4854 214.587 249.748 171.083 246.705C136.28 244.271 131.783 320.669 133.884 359.172" stroke="#876C4E"/>
<path d="M254.831 -118.098C236.089 -89.9565 208.692 -21.5078 249.032 27.1548C299.458 87.983 209.334 246.421 166.352 244.217C131.967 242.453 127.962 318.656 130.257 356.978" stroke="#876C4E"/>
<path d="M246.936 -121.035C228.594 -92.6375 201.937 -23.9117 242.042 23.8104C292.172 83.463 204.104 243.05 161.657 241.671C127.7 240.568 124.182 316.575 126.667 354.717" stroke="#876C4E"/>
</svg>
