<svg width="705" height="1317" viewBox="0 0 705 1317" fill="none" xmlns="http://www.w3.org/2000/svg">
<path d="M1224.11 -24.1712C1143.87 37.7366 1011.1 214.587 1121.86 426.727C1260.32 691.903 861.379 1062.68 715.214 993.619C598.282 938.371 541.336 1173.53 527.479 1298.02" stroke="#876C4E"/>
<path d="M715.36 -222.077C656.797 -139.829 567.307 61.3137 677.848 207.908C816.024 391.152 531.124 855.132 406.294 846.018C306.431 838.726 283.946 1064.25 285.187 1177.92" stroke="#876C4E"/>
<path d="M1198.45 -32.9106C1119.11 30.1045 988.272 208.327 1099.65 417.099C1238.87 678.063 844.766 1053.96 699.099 988.037C582.565 935.303 527.439 1170.07 514.443 1294.04" stroke="#876C4E"/>
<path d="M1172.95 -41.7038C1094.51 22.406 965.628 201.98 1077.55 407.401C1217.46 664.176 828.25 1045.12 683.136 982.322C567.045 932.083 513.721 1166.44 501.57 1289.9" stroke="#876C4E"/>
<path d="M1147.59 -50.5522C1070.08 14.6393 943.164 195.544 1055.57 397.633C1196.08 650.243 811.831 1036.18 667.325 976.474C551.721 928.709 500.18 1162.65 488.86 1285.6" stroke="#876C4E"/>
<path d="M1122.39 -59.4588C1045.82 6.80144 920.878 189.016 1033.7 387.793C1174.73 636.264 795.506 1027.12 651.663 970.488C536.588 925.179 486.812 1158.7 476.309 1281.13" stroke="#876C4E"/>
<path d="M1097.34 -68.4263C1021.72 -1.11053 898.767 182.393 1011.94 377.879C1153.42 622.237 779.274 1017.96 636.147 964.365C521.646 921.49 473.616 1154.58 463.914 1276.49" stroke="#876C4E"/>
<path d="M1072.43 -77.4569C997.774 -9.09912 876.831 175.671 990.296 367.889C1132.13 608.162 763.134 1008.68 620.777 958.1C506.891 917.638 460.59 1150.3 451.675 1271.68" stroke="#876C4E"/>
<path d="M1047.67 -86.5531C973.992 -17.167 855.067 168.849 968.756 357.822C1110.87 594.04 747.085 999.282 605.55 951.693C492.322 913.622 447.731 1145.84 439.589 1266.71" stroke="#876C4E"/>
<path d="M1023.05 -95.7174C950.369 -25.3168 833.474 161.923 947.324 347.677C1089.64 579.869 731.126 989.771 590.466 945.142C477.937 909.439 435.038 1141.21 427.655 1261.55" stroke="#876C4E"/>
<path d="M998.572 -104.952C926.902 -33.5509 812.048 154.891 925.998 337.451C1068.44 565.65 715.254 980.143 575.519 938.445C463.732 905.086 422.507 1136.4 415.868 1256.22" stroke="#876C4E"/>
<path d="M974.238 -114.259C903.59 -41.8719 790.79 147.751 904.777 327.143C1047.26 551.383 699.469 970.398 560.712 931.599C449.706 900.56 410.137 1131.41 404.229 1250.72" stroke="#876C4E"/>
<path d="M950.042 -123.642C880.429 -50.2823 769.695 140.499 883.659 316.751C1026.11 537.066 683.769 960.533 546.038 924.604C435.854 895.86 397.925 1126.25 392.733 1245.03" stroke="#876C4E"/>
<path d="M925.984 -133.101C857.42 -58.7848 748.762 133.134 862.643 306.274C1004.99 522.7 668.152 950.548 531.499 917.456C422.176 890.983 385.868 1120.9 381.379 1239.17" stroke="#876C4E"/>
<path d="M902.061 -142.641C834.559 -67.3822 727.99 125.651 841.727 295.71C983.899 508.284 652.617 940.442 517.09 910.155C408.669 885.925 373.964 1115.37 370.164 1233.11" stroke="#876C4E"/>
<path d="M878.274 -152.261C811.847 -76.0747 707.376 118.051 820.911 285.059C962.831 493.82 637.164 930.215 502.812 902.699C395.33 880.687 362.211 1109.65 359.087 1226.88" stroke="#876C4E"/>
<path d="M854.618 -161.967C789.278 -84.8677 686.917 110.328 800.193 274.317C941.787 479.304 621.789 919.864 488.66 895.086C382.156 875.263 350.607 1103.74 348.145 1220.46" stroke="#876C4E"/>
<path d="M831.092 -171.758C766.852 -93.7616 666.612 102.482 779.57 263.485C920.768 464.739 606.492 909.39 474.632 887.314C369.144 869.653 339.147 1097.65 337.335 1213.85" stroke="#876C4E"/>
<path d="M807.696 -181.637C744.568 -102.759 646.458 94.5098 759.042 252.56C899.773 450.123 591.272 898.791 460.728 879.382C356.293 863.854 327.831 1091.36 326.655 1207.05" stroke="#876C4E"/>
<path d="M784.427 -191.606C722.422 -111.862 626.453 86.4096 738.608 241.542C878.802 435.458 576.127 888.067 446.944 871.288C343.599 857.865 316.656 1084.88 316.103 1200.06" stroke="#876C4E"/>
<path d="M761.282 -201.668C700.413 -121.073 606.594 78.1781 718.265 230.428C857.853 420.74 561.054 877.216 433.279 863.03C331.059 851.681 305.618 1078.2 305.675 1192.88" stroke="#876C4E"/>
<path d="M738.26 -211.824C678.539 -130.395 586.879 69.8137 698.012 219.217C836.928 405.972 546.054 866.238 419.729 854.607C318.67 845.303 294.716 1071.32 295.371 1185.5" stroke="#876C4E"/>
</svg>
