<svg width="287" height="234" viewBox="0 0 287 234" fill="none" xmlns="http://www.w3.org/2000/svg">
<mask id="mask0_46_987" style="mask-type:alpha" maskUnits="userSpaceOnUse" x="0" y="0" width="287" height="234">
<rect width="287" height="234" fill="url(#paint0_linear_46_987)"/>
</mask>
<g mask="url(#mask0_46_987)">
<path d="M432.242 332.155C398.34 317.649 318.601 306.843 270.858 379.667C211.18 470.698 22.6137 409.743 18.6212 351.056C15.4273 304.107 -69.3823 327.737 -111.388 345.42" stroke="#876C4E"/>
<path d="M404.854 135.422C368.336 131.41 288.559 138.665 261.6 199.79C227.9 276.196 29.9563 268.004 10.7053 226.731C-4.69548 193.712 -80.3294 226.58 -116.221 247.141" stroke="#876C4E"/>
<path d="M430.466 322.453C396.371 308.428 316.54 298.481 269.977 370.903C211.772 461.43 22.4376 402.917 17.5354 344.946C13.6137 298.57 -70.747 322.707 -112.437 340.573" stroke="#876C4E"/>
<path d="M428.735 312.791C394.453 299.248 314.539 290.161 269.137 362.163C212.385 452.165 22.3137 396.103 16.519 338.861C11.8832 293.068 -72.029 317.706 -113.406 335.749" stroke="#876C4E"/>
<path d="M427.048 303.167C392.586 290.109 312.598 281.884 268.341 353.447C213.019 442.901 22.2417 389.301 15.5719 332.801C10.2361 287.601 -73.2284 312.732 -114.294 330.948" stroke="#876C4E"/>
<path d="M425.406 293.58C390.771 281.009 310.718 273.645 267.587 344.753C213.672 433.639 22.2217 382.508 14.6946 326.763C8.67281 282.167 -74.3448 307.785 -115.101 326.168" stroke="#876C4E"/>
<path d="M423.81 284.03C389.008 271.949 308.9 265.446 266.876 336.082C214.346 424.378 22.2542 375.725 13.8874 320.748C7.194 276.766 -75.3775 302.862 -115.827 321.407" stroke="#876C4E"/>
<path d="M422.259 274.514C387.299 262.925 307.143 257.284 266.209 327.433C215.041 415.118 22.3391 368.951 13.1506 314.753C5.79989 271.395 -76.3265 297.963 -116.471 316.666" stroke="#876C4E"/>
<path d="M420.756 265.034C385.642 253.939 305.449 249.16 265.585 318.804C215.755 405.858 22.4764 362.186 12.4845 308.779C4.49098 266.054 -77.1914 293.087 -117.033 311.944" stroke="#876C4E"/>
<path d="M419.3 255.588C384.04 244.989 303.819 241.072 265.006 310.195C216.491 396.6 22.6667 355.429 11.8897 302.825C3.26801 260.742 -77.9715 288.233 -117.514 307.238" stroke="#876C4E"/>
<path d="M417.891 246.174C382.493 236.073 302.251 233.018 264.471 301.606C217.246 387.342 22.9094 348.678 11.3656 296.889C2.13066 255.457 -78.6673 283.399 -117.912 302.548" stroke="#876C4E"/>
<path d="M416.531 236.792C381 227.19 300.748 224.997 263.981 293.036C218.022 378.084 23.2048 341.935 10.9131 290.97C1.07968 250.199 -79.2782 278.585 -118.228 297.874" stroke="#876C4E"/>
<path d="M415.219 227.441C379.563 218.341 299.309 217.009 263.536 284.483C218.818 368.826 23.5533 335.197 10.5324 285.068C0.115571 244.964 -79.8036 273.788 -118.461 293.213" stroke="#876C4E"/>
<path d="M413.956 218.119C378.182 209.522 297.936 209.052 263.135 275.948C219.635 359.567 23.9547 328.464 10.2234 279.18C-0.761602 239.754 -80.2437 269.009 -118.612 288.565" stroke="#876C4E"/>
<path d="M412.742 208.827C376.858 200.735 296.627 201.126 262.781 267.429C220.473 350.308 24.4093 321.736 9.98675 273.308C-1.55127 234.565 -80.598 264.246 -118.679 283.929" stroke="#876C4E"/>
<path d="M411.578 199.564C375.59 191.977 295.385 193.229 262.471 258.927C221.33 341.049 24.9165 315.012 9.82191 267.449C-2.25372 229.399 -80.8668 259.498 -118.664 279.304" stroke="#876C4E"/>
<path d="M410.464 190.326C374.379 183.247 294.208 185.359 262.208 250.439C222.208 331.788 25.4772 308.291 9.72997 261.602C-2.86781 224.251 -81.0491 254.763 -118.565 274.688" stroke="#876C4E"/>
<path d="M409.401 181.116C373.226 174.545 293.099 177.516 261.991 241.966C223.106 322.527 26.0908 301.574 9.71033 255.767C-3.39404 219.122 -81.1455 250.041 -118.383 270.082" stroke="#876C4E"/>
<path d="M408.389 171.93C372.131 165.87 292.055 169.7 261.819 233.506C224.024 313.264 26.7574 294.858 9.76324 249.943C-3.83207 214.011 -81.1556 245.331 -118.118 265.483" stroke="#876C4E"/>
<path d="M407.427 162.769C371.094 157.219 291.08 161.907 261.694 225.06C224.963 304 27.4773 288.144 9.88921 244.128C-4.18129 208.915 -81.0791 240.631 -117.769 260.89" stroke="#876C4E"/>
<path d="M406.518 153.632C370.115 148.593 290.171 154.138 261.616 216.625C225.922 294.734 28.2504 281.431 10.0881 238.322C-4.4418 203.835 -80.916 235.94 -117.337 256.303" stroke="#876C4E"/>
<path d="M405.66 144.516C369.196 139.99 289.331 146.391 261.584 208.202C226.901 285.466 29.0766 274.718 10.36 232.523C-4.61332 198.767 -80.6662 231.256 -116.821 251.72" stroke="#876C4E"/>
</g>
<defs>
<linearGradient id="paint0_linear_46_987" x1="143.5" y1="-24.5" x2="143.5" y2="234" gradientUnits="userSpaceOnUse">
<stop offset="0.0981437" stop-color="white" stop-opacity="0.06"/>
<stop offset="0.171875" stop-color="white" stop-opacity="0.59"/>
<stop offset="0.260417" stop-color="white" stop-opacity="0.87"/>
<stop offset="0.373167" stop-color="white"/>
</linearGradient>
</defs>
</svg>
