<svg width="297" height="359" viewBox="0 0 297 359" fill="none" xmlns="http://www.w3.org/2000/svg">
<path d="M413.023 -38.9693C387.439 -16.6881 346.577 45.0481 387.804 113.743C439.337 199.612 313.379 331.438 263.162 311.261C222.989 295.119 208.627 374.836 206.467 416.712" stroke="#876C4E"/>
<path d="M239.079 -95.0069C221.141 -66.3588 195.228 2.63622 235.079 49.4314C284.892 107.925 198.894 268.635 156.997 268.067C123.48 267.613 120.442 343.425 123.113 381.388" stroke="#876C4E"/>
<path d="M404.275 -41.3805C379.012 -18.747 338.826 43.4093 380.19 110.966C431.896 195.412 307.654 328.852 257.666 309.715C217.676 294.406 203.914 373.954 202.032 415.642" stroke="#876C4E"/>
<path d="M395.578 -43.8125C370.639 -20.8312 331.132 41.738 372.614 108.164C424.466 191.197 301.96 326.228 252.219 308.122C212.426 293.638 199.258 373.015 197.648 414.514" stroke="#876C4E"/>
<path d="M386.93 -46.2662C362.321 -22.9417 323.498 40.0331 365.074 105.336C417.045 186.965 296.295 323.566 246.819 306.482C207.237 292.815 194.657 372.018 193.315 413.328" stroke="#876C4E"/>
<path d="M378.33 -48.7425C354.056 -25.0794 315.92 38.2938 357.57 102.482C409.633 182.717 290.66 320.864 241.466 304.792C202.11 291.935 190.111 370.963 189.032 412.084" stroke="#876C4E"/>
<path d="M369.779 -51.2418C345.844 -27.2449 308.4 36.5192 350.102 99.6008C402.23 178.453 285.054 318.123 236.159 303.054C197.044 290.999 185.62 369.849 184.798 410.78" stroke="#876C4E"/>
<path d="M361.276 -53.7655C337.685 -29.4395 300.935 34.7083 342.669 96.692C394.836 174.172 279.476 315.342 230.898 301.266C192.036 290.004 181.182 368.674 180.612 409.417" stroke="#876C4E"/>
<path d="M352.821 -56.3137C329.577 -31.6635 293.527 32.8605 335.271 93.7555C387.452 169.874 273.926 312.521 225.683 299.427C187.088 288.952 176.796 367.439 176.475 407.993" stroke="#876C4E"/>
<path d="M344.412 -58.8876C321.521 -33.9182 286.173 30.9746 327.908 90.7904C380.075 165.56 268.404 309.659 220.511 297.537C182.198 287.839 172.462 366.143 172.384 406.508" stroke="#876C4E"/>
<path d="M336.049 -61.4877C313.515 -36.204 278.874 29.0501 320.578 87.7964C372.708 161.229 262.908 306.757 215.384 295.595C177.364 286.666 168.179 364.785 168.339 404.961" stroke="#876C4E"/>
<path d="M327.732 -64.115C305.559 -38.522 271.628 27.0859 313.281 84.7729C365.348 156.882 257.44 303.813 210.299 293.602C172.587 285.433 163.946 363.365 164.34 403.352" stroke="#876C4E"/>
<path d="M319.46 -66.7701C297.653 -40.8729 264.434 25.0812 306.018 81.7194C357.997 152.517 251.997 300.828 205.257 291.555C167.865 284.137 159.763 361.881 160.386 401.68" stroke="#876C4E"/>
<path d="M311.232 -69.4538C289.795 -43.2575 257.293 23.0353 298.787 78.6354C350.654 148.136 246.58 297.801 200.256 289.455C163.197 282.778 155.627 360.333 156.475 399.945" stroke="#876C4E"/>
<path d="M303.048 -72.1669C281.984 -45.6767 250.202 20.9471 291.587 75.5203C343.318 143.737 241.188 294.732 195.296 287.301C158.583 281.356 151.539 358.72 152.607 398.146" stroke="#876C4E"/>
<path d="M294.908 -74.9097C274.221 -48.1308 243.163 18.8164 284.419 72.3741C335.99 139.321 235.821 291.622 190.376 285.093C154.021 279.871 147.498 357.043 148.781 396.282" stroke="#876C4E"/>
<path d="M286.81 -77.6835C266.505 -50.6213 236.172 16.6417 277.282 69.1956C328.67 134.888 230.478 288.468 185.496 282.83C149.511 278.32 143.503 355.3 144.997 394.353" stroke="#876C4E"/>
<path d="M278.754 -80.4884C258.834 -53.1482 229.231 14.4228 270.176 65.9851C321.357 130.438 225.158 285.271 180.654 280.511C145.051 276.703 139.552 353.49 141.253 392.359" stroke="#876C4E"/>
<path d="M270.739 -83.3254C251.209 -55.7126 222.338 12.1588 263.099 62.7417C314.05 125.97 219.861 282.031 175.85 278.136C140.641 275.02 135.646 351.613 137.549 390.299" stroke="#876C4E"/>
<path d="M262.765 -86.1951C243.627 -58.3152 215.491 9.84876 256.051 59.465C306.751 121.485 214.587 278.748 171.083 275.705C136.28 273.271 131.783 349.669 133.884 388.172" stroke="#876C4E"/>
<path d="M254.831 -89.0981C236.089 -60.9565 208.692 7.49224 249.032 56.1548C299.458 116.983 209.334 275.421 166.352 273.217C131.967 271.453 127.962 347.656 130.257 385.978" stroke="#876C4E"/>
<path d="M246.936 -92.0351C228.594 -63.6375 201.937 5.08834 242.042 52.8104C292.172 112.463 204.104 272.05 161.657 270.671C127.7 269.568 124.182 345.575 126.667 383.717" stroke="#876C4E"/>
</svg>
