<svg width="4" height="4" viewBox="0 0 4 4" fill="none" xmlns="http://www.w3.org/2000/svg">
<path d="M1.90545 3.66002C1.59545 3.66002 1.30842 3.57965 1.04434 3.41891C0.780271 3.25817 0.567864 3.04576 0.407124 2.78169C0.246384 2.51761 0.166014 2.23058 0.166014 1.92058C0.166014 1.5991 0.246384 1.30632 0.407124 1.04225C0.567864 0.778175 0.780271 0.565768 1.04434 0.405028C1.30842 0.244288 1.59545 0.163918 1.90545 0.163918C2.22693 0.163918 2.51971 0.244288 2.78378 0.405028C3.04786 0.565768 3.26026 0.778175 3.421 1.04225C3.58174 1.30632 3.66211 1.5991 3.66211 1.92058C3.66211 2.23058 3.58174 2.51761 3.421 2.78169C3.26026 3.04576 3.04786 3.25817 2.78378 3.41891C2.51971 3.57965 2.22693 3.66002 1.90545 3.66002Z" fill="#002856"/>
</svg>
