<svg width="18" height="18" viewBox="0 0 18 18" fill="none" xmlns="http://www.w3.org/2000/svg">
<path fill-rule="evenodd" clip-rule="evenodd" d="M11.2661 2.50749C11.6474 2.44218 12.0744 2.42037 12.4762 2.48835C13.1938 2.60976 13.8567 2.94331 14.3807 3.44338C14.7232 3.45113 15.0598 3.38365 15.3577 3.28745C15.6098 3.20604 15.8227 3.10773 15.9719 3.03001C16.0461 2.99136 16.1034 2.95839 16.1407 2.93607C16.1593 2.92493 16.1728 2.91649 16.1808 2.9114L16.188 2.90685C16.4106 2.75856 16.707 2.78742 16.8967 2.97605C17.0864 3.16472 17.1169 3.46091 16.9697 3.68434C16.8139 3.92081 16.5977 4.34236 16.3554 4.81468C16.3173 4.88895 16.2785 4.96447 16.2393 5.04072C16.1003 5.31069 15.9578 5.58355 15.825 5.81765C15.7416 5.96464 15.6524 6.11387 15.5625 6.24283V6.44816C15.5682 7.20238 15.4817 7.95267 15.3061 8.68259C15.1957 9.14184 15.05 9.59304 14.8698 10.0321C14.403 11.1696 13.7142 12.2026 12.8436 13.071C11.9731 13.9393 10.9382 14.6254 9.79956 15.0893C8.66188 15.5528 7.44332 15.7852 6.21493 15.7728C4.4342 15.7744 2.69092 15.2613 1.19488 14.2954C0.97453 14.1531 0.881755 13.8774 0.971258 13.6309C1.06076 13.3843 1.30878 13.2324 1.56908 13.2646C1.79435 13.2925 2.02116 13.3061 2.24815 13.3053C3.06374 13.3031 3.86379 13.1228 4.59419 12.7834C4.36203 12.6777 4.14038 12.5474 3.93326 12.3938C3.32447 11.9424 2.87154 11.3124 2.63749 10.5915C2.57667 10.4042 2.61825 10.1987 2.74711 10.0498C2.74942 10.0471 2.75175 10.0445 2.7541 10.0419C2.61645 9.91914 2.48766 9.7855 2.36908 9.64177C1.8356 8.99512 1.54184 8.18404 1.5375 7.34574L1.53749 7.34283L1.5375 7.30533C1.5375 7.10593 1.64306 6.92144 1.81496 6.8204C1.85854 6.79478 1.90473 6.77551 1.95224 6.76257C1.69849 6.25626 1.56653 5.69718 1.5675 5.12999C1.5672 4.48741 1.73504 3.85593 2.05436 3.29831C2.14655 3.13733 2.31217 3.03215 2.49707 3.01717C2.68196 3.00219 2.86236 3.07933 2.97925 3.22336C3.70117 4.11287 4.60214 4.84056 5.62363 5.35917C6.14873 5.62576 6.69964 5.83403 7.26649 5.98136C7.58429 6.06395 7.9071 6.12739 8.23318 6.17121C8.21882 5.62877 8.32593 5.08662 8.55073 4.58567C8.88049 3.8508 9.44484 3.24617 10.1553 2.8666C10.4561 2.70585 10.8555 2.57782 11.2661 2.50749ZM2.80745 8.16811C2.90469 8.44178 3.04934 8.69852 3.23688 8.92584C3.60537 9.3725 4.11683 9.67817 4.68474 9.79114C4.93771 9.84147 5.12404 10.0574 5.13681 10.315C5.14957 10.5726 4.98551 10.8059 4.73876 10.881C4.53439 10.9432 4.32501 10.9865 4.11324 11.0106C4.25318 11.1909 4.41779 11.3525 4.60334 11.4901C5.02423 11.8022 5.53194 11.9754 6.05582 11.9854C6.29351 11.99 6.50266 12.1435 6.57828 12.3689C6.6539 12.5943 6.57966 12.8429 6.39283 12.9899C5.60596 13.609 4.69605 14.0408 3.73189 14.2612C4.53101 14.5171 5.36909 14.6489 6.21681 14.6478L6.22334 14.6478C7.30338 14.659 8.37483 14.455 9.37511 14.0475C10.3754 13.64 11.2844 13.0372 12.0492 12.2744C12.8139 11.5117 13.419 10.6042 13.829 9.60495C13.9873 9.21928 14.1153 8.82294 14.2123 8.41951C14.3667 7.77768 14.4427 7.11793 14.4375 6.45473L14.4375 6.45033V6.05283C14.4375 5.91644 14.4871 5.7847 14.5769 5.68212C14.6289 5.62284 14.7198 5.48592 14.8465 5.2625C14.967 5.05015 15.1004 4.79522 15.239 4.52583C15.2474 4.50954 15.2558 4.49316 15.2643 4.47671C14.9046 4.55482 14.4969 4.59576 14.0696 4.54958C13.9342 4.53495 13.8088 4.47173 13.7165 4.37165C13.3393 3.96265 12.8371 3.6904 12.2885 3.59759C12.0451 3.55641 11.7509 3.56584 11.456 3.61634C11.1357 3.67121 10.8569 3.76722 10.6854 3.85885C10.1947 4.12103 9.8049 4.53866 9.57712 5.04625C9.34935 5.55384 9.29649 6.12268 9.42684 6.66354C9.4684 6.83598 9.42619 7.01791 9.31295 7.15443C9.19972 7.29096 9.02873 7.36607 8.85158 7.35711C8.21902 7.32512 7.59316 7.22863 6.9835 7.07018C6.33858 6.90256 5.71178 6.6656 5.11435 6.36229C4.23476 5.91573 3.43372 5.33291 2.74009 4.63715C2.70845 4.79885 2.69239 4.96387 2.6925 5.12996L2.69249 5.1314C2.69171 5.54444 2.79307 5.95126 2.98756 6.31565C3.18204 6.68004 3.46361 6.99068 3.80719 7.21992C4.01571 7.35904 4.107 7.61936 4.03106 7.85824C3.95512 8.09713 3.73027 8.25694 3.4797 8.25012C3.25275 8.24395 3.0277 8.21635 2.80745 8.16811Z" fill="white"/>
</svg>
