<svg width="30" height="30" viewBox="0 0 30 30" fill="none" xmlns="http://www.w3.org/2000/svg">
<path fill-rule="evenodd" clip-rule="evenodd" d="M17.8623 19.1795C14.5714 21.8153 9.75416 21.6079 6.70348 18.5572C3.43022 15.2839 3.43022 9.97691 6.70348 6.70365C9.97675 3.43039 15.2838 3.43039 18.557 6.70365C21.6077 9.75432 21.8151 14.5715 19.1794 17.8625L25.5813 24.2644C25.945 24.6281 25.945 25.2178 25.5813 25.5815C25.2176 25.9452 24.628 25.9452 24.2643 25.5815L17.8623 19.1795ZM8.02054 17.2401C5.47467 14.6943 5.47467 10.5666 8.02054 8.02071C10.5664 5.47484 14.6941 5.47484 17.24 8.02071C19.784 10.5647 19.7858 14.6882 17.2456 17.2345C17.2437 17.2364 17.2418 17.2382 17.2399 17.2401C17.2381 17.242 17.2362 17.2438 17.2344 17.2457C14.688 19.786 10.5645 19.7841 8.02054 17.2401Z" fill="#002856"/>
</svg>
