<svg width="18" height="18" viewBox="0 0 18 18" fill="none" xmlns="http://www.w3.org/2000/svg">
<path d="M12 5.24991C12 4.8357 12.3358 4.49991 12.75 4.49991C13.1642 4.49991 13.5 4.8357 13.5 5.24991C13.5 5.66413 13.1642 5.99991 12.75 5.99991C12.3358 5.99991 12 5.66413 12 5.24991Z" fill="white"/>
<path fill-rule="evenodd" clip-rule="evenodd" d="M9.00002 5.43741C7.0325 5.43741 5.43752 7.0324 5.43752 8.99991C5.43752 10.9674 7.0325 12.5624 9.00002 12.5624C10.9675 12.5624 12.5625 10.9674 12.5625 8.99991C12.5625 7.0324 10.9675 5.43741 9.00002 5.43741ZM6.56252 8.99991C6.56252 7.65372 7.65382 6.56241 9.00002 6.56241C10.3462 6.56241 11.4375 7.65372 11.4375 8.99991C11.4375 10.3461 10.3462 11.4374 9.00002 11.4374C7.65382 11.4374 6.56252 10.3461 6.56252 8.99991Z" fill="white"/>
<path fill-rule="evenodd" clip-rule="evenodd" d="M12.9437 2.12467C10.3438 1.83409 7.65627 1.83409 5.05634 2.12467C3.5473 2.29333 2.32905 3.48209 2.15163 4.99899C1.84073 7.65721 1.84073 10.3426 2.15163 13.0008C2.32905 14.5177 3.5473 15.7065 5.05634 15.8751C7.65627 16.1657 10.3438 16.1657 12.9437 15.8751C14.4527 15.7065 15.671 14.5177 15.8484 13.0008C16.1593 10.3426 16.1593 7.65721 15.8484 4.99899C15.671 3.48209 14.4527 2.29333 12.9437 2.12467ZM5.1813 3.24271C7.69818 2.96141 10.3019 2.96141 12.8188 3.24271C13.8163 3.35421 14.6154 4.14142 14.731 5.12967C15.0318 7.70107 15.0318 10.2988 14.731 12.8701C14.6154 13.8584 13.8163 14.6456 12.8187 14.7571C10.3019 15.0384 7.69819 15.0384 5.1813 14.7571C4.18372 14.6456 3.3846 13.8584 3.26902 12.8701C2.96827 10.2988 2.96827 7.70107 3.26902 5.12967C3.3846 4.14142 4.18372 3.35421 5.1813 3.24271Z" fill="white"/>
</svg>
