<svg width="18" height="18" viewBox="0 0 18 18" fill="none" xmlns="http://www.w3.org/2000/svg">
<path fill-rule="evenodd" clip-rule="evenodd" d="M17.5537 12.6487C17.1458 11.8271 16.6083 11.0766 15.9619 10.426C15.7419 10.1702 15.4839 9.91787 15.2826 9.72087L15.2545 9.69335C15.1506 9.59171 15.0648 9.50733 14.9946 9.43463C15.8785 8.20556 16.635 6.88946 17.2522 5.50667L17.2771 5.45088L17.2946 5.39232C17.3757 5.12015 17.4692 4.6026 17.1386 4.13488C16.797 3.65144 16.2499 3.56426 15.8836 3.56426H14.1983C13.847 3.54815 13.4991 3.64313 13.2043 3.83623C12.9074 4.0308 12.6801 4.31458 12.5552 4.64632C12.1922 5.51084 11.7381 6.33315 11.201 7.09949V5.12452C11.201 4.86922 11.177 4.44217 10.9037 4.08172C10.5764 3.65014 10.103 3.56426 9.77448 3.56426H7.10031C6.75578 3.55629 6.4207 3.67948 6.1632 3.90944C5.8995 4.14494 5.73789 4.47391 5.71265 4.82657L5.71026 4.85998V4.89347C5.71026 5.25758 5.85454 5.52617 5.96981 5.69508C6.02142 5.77071 6.07662 5.83954 6.11148 5.88303L6.11953 5.89306C6.15671 5.93942 6.18153 5.97037 6.20644 6.00425C6.27195 6.09336 6.36618 6.23076 6.39284 6.5863V7.69102C5.93183 6.93317 5.44549 5.92467 5.07957 4.84758L5.07396 4.83105L5.06773 4.81474C4.97649 4.57577 4.83015 4.22807 4.53706 3.962C4.19466 3.65116 3.78967 3.56426 3.42136 3.56426H1.71141C1.3388 3.56426 0.889601 3.65142 0.554428 4.00499C0.22483 4.35268 0.1875 4.7693 0.1875 4.99082V5.09066L0.208529 5.18827C0.682158 7.38661 1.65807 9.44526 3.0596 11.2032C3.69501 12.2053 4.55601 13.0452 5.5741 13.6557C6.60843 14.2758 7.77531 14.6414 8.97861 14.7223L9.01001 14.7244H9.04147C9.58585 14.7244 10.1533 14.6774 10.5801 14.393C11.1558 14.0094 11.201 13.4202 11.201 13.1266V12.2731C11.3488 12.3926 11.5321 12.5533 11.7565 12.7694C12.0277 13.0409 12.2437 13.2762 12.429 13.4816L12.5279 13.5915L12.5284 13.5921C12.6723 13.7523 12.8139 13.91 12.9428 14.0396C13.1049 14.2026 13.3047 14.3821 13.5559 14.5147C13.8278 14.6583 14.1133 14.7232 14.4165 14.7232H16.1276C16.4881 14.7232 17.0051 14.638 17.3686 14.2166C17.7648 13.7572 17.7345 13.1943 17.61 12.7898L17.5876 12.717L17.5537 12.6487ZM13.2643 12.728C13.0717 12.5144 12.8394 12.2613 12.5459 11.9678L12.5434 11.9654C11.5264 10.9848 11.0511 10.814 10.7151 10.814C10.5364 10.814 10.3386 10.834 10.2103 10.9939C10.1497 11.0694 10.1179 11.1604 10.1 11.2553C10.0822 11.35 10.076 11.4612 10.076 11.5879V13.1266C10.076 13.3177 10.0446 13.3979 9.95623 13.4569C9.83849 13.5353 9.58687 13.5989 9.04777 13.5994C8.0245 13.5296 7.03231 13.2183 6.15262 12.6908C5.27113 12.1623 4.52781 11.4319 3.9839 10.5598L3.97798 10.5503L3.97098 10.5416C2.66503 8.9161 1.75502 7.00928 1.31273 4.97182C1.31512 4.8736 1.3364 4.81533 1.37088 4.77897C1.40641 4.74149 1.49249 4.68926 1.71141 4.68926H3.42136C3.61158 4.68926 3.71003 4.73063 3.78088 4.79495C3.8612 4.86787 3.93087 4.99171 4.01551 5.21282C4.43521 6.4473 5.00279 7.60176 5.54025 8.45064C5.80889 8.87492 6.07327 9.22807 6.31147 9.47763C6.43038 9.60221 6.54699 9.70547 6.65827 9.77886C6.76599 9.84989 6.8881 9.90592 7.01368 9.90592C7.07995 9.90592 7.15746 9.8991 7.23209 9.86606C7.31237 9.83051 7.37468 9.77127 7.41868 9.6919C7.49652 9.55148 7.51784 9.34349 7.51784 9.07103V6.54824L7.51747 6.54232C7.4786 5.92857 7.29329 5.58333 7.11285 5.33789C7.07331 5.2841 7.03432 5.23551 7.00019 5.19299L6.99084 5.18134C6.95338 5.13462 6.92357 5.09686 6.89907 5.06096C6.85418 4.99518 6.83678 4.94932 6.83536 4.90017C6.84121 4.84184 6.86871 4.7877 6.91256 4.74854C6.95808 4.70789 7.01764 4.68673 7.07862 4.68926H9.77448C9.92902 4.68926 9.98107 4.72697 10.0073 4.76151C10.0443 4.81028 10.076 4.9117 10.076 5.12452V8.52098C10.076 8.92443 10.262 9.19754 10.5321 9.19754C10.8429 9.19754 11.0669 9.00896 11.4587 8.6172L11.4652 8.61066L11.4711 8.60351C12.3492 7.53267 13.0669 6.33974 13.601 5.06208L13.6044 5.0525C13.6446 4.9396 13.7206 4.84294 13.8208 4.77728C13.9211 4.71161 14.04 4.68054 14.1596 4.68881L14.166 4.68926H15.8836C16.1179 4.68926 16.195 4.74887 16.2199 4.78413C16.2464 4.82164 16.2648 4.90203 16.2198 5.05969C15.604 6.43699 14.8424 7.74435 13.9485 8.95977L13.9429 8.96838C13.8561 9.10108 13.7609 9.24792 13.7471 9.41654C13.7323 9.5976 13.8107 9.76219 13.9478 9.93862C14.0477 10.0863 14.2537 10.288 14.4627 10.4926L14.4824 10.5119C14.7016 10.7264 14.939 10.9587 15.1296 11.1837L15.1346 11.1897L15.1402 11.1952C15.7083 11.7619 16.1807 12.417 16.539 13.1349C16.5962 13.3303 16.5612 13.4303 16.5167 13.4818C16.4647 13.5421 16.3482 13.5982 16.1276 13.5982H14.4165C14.2829 13.5982 14.1797 13.5719 14.0812 13.5199C13.9785 13.4656 13.8729 13.3794 13.7404 13.2462C13.6338 13.139 13.5172 13.0093 13.3751 12.8511C13.3398 12.8118 13.3029 12.7708 13.2643 12.728Z" fill="white"/>
</svg>
