<svg width="18" height="18" viewBox="0 0 18 18" fill="none" xmlns="http://www.w3.org/2000/svg">
<path fill-rule="evenodd" clip-rule="evenodd" d="M7.86577 2.84077C8.60419 2.10234 9.60571 1.6875 10.65 1.6875H12.675C12.9857 1.6875 13.2375 1.93934 13.2375 2.25V4.95C13.2375 5.26066 12.9857 5.5125 12.675 5.5125H10.65C10.6202 5.5125 10.5915 5.52435 10.5705 5.54545C10.5494 5.56655 10.5375 5.59516 10.5375 5.625V7.0875H12.675C12.8482 7.0875 13.0118 7.1673 13.1184 7.30383C13.225 7.44036 13.2627 7.61838 13.2207 7.78643L12.5457 10.4864C12.4831 10.7368 12.2581 10.9125 12 10.9125H10.5375V15.75C10.5375 16.0607 10.2857 16.3125 9.975 16.3125H7.275C6.96434 16.3125 6.7125 16.0607 6.7125 15.75V10.9125H5.25C4.93934 10.9125 4.6875 10.6607 4.6875 10.35V7.65C4.6875 7.33934 4.93934 7.0875 5.25 7.0875H6.7125V5.625C6.7125 4.58071 7.12734 3.57919 7.86577 2.84077ZM10.65 2.8125C9.90408 2.8125 9.18871 3.10882 8.66126 3.63626C8.13382 4.16371 7.8375 4.87908 7.8375 5.625V7.65C7.8375 7.96066 7.58566 8.2125 7.275 8.2125H5.8125V9.7875H7.275C7.58566 9.7875 7.8375 10.0393 7.8375 10.35V15.1875H9.4125V10.35C9.4125 10.0393 9.66434 9.7875 9.975 9.7875H11.5608L11.9546 8.2125H9.975C9.66434 8.2125 9.4125 7.96066 9.4125 7.65V5.625C9.4125 5.29679 9.54288 4.98203 9.77496 4.74996C10.007 4.51788 10.3218 4.3875 10.65 4.3875H12.1125V2.8125H10.65Z" fill="white"/>
</svg>
