<svg width="24" height="27" viewBox="0 0 24 27" fill="none" xmlns="http://www.w3.org/2000/svg">
<path fill-rule="evenodd" clip-rule="evenodd" d="M5.625 7.25C5.625 3.72918 8.47919 0.875 12 0.875C15.5208 0.875 18.375 3.72918 18.375 7.25C18.375 10.7708 15.5208 13.625 12 13.625C8.47919 13.625 5.625 10.7708 5.625 7.25ZM12 3.125C9.72183 3.125 7.875 4.97183 7.875 7.25C7.875 9.52817 9.72183 11.375 12 11.375C14.2782 11.375 16.125 9.52817 16.125 7.25C16.125 4.97183 14.2782 3.125 12 3.125Z" fill="#002856"/>
<path fill-rule="evenodd" clip-rule="evenodd" d="M6 18.125C4.13604 18.125 2.625 19.636 2.625 21.5V23.2824C2.625 23.3096 2.64467 23.3327 2.67145 23.3371C8.84959 24.3458 15.1504 24.3458 21.3285 23.3371C21.3553 23.3327 21.375 23.3096 21.375 23.2824V21.5C21.375 19.636 19.864 18.125 18 18.125H17.4887C17.4492 18.125 17.4099 18.1313 17.3723 18.1435L16.074 18.5674C13.4268 19.4319 10.5732 19.4319 7.92598 18.5674L6.6277 18.1435C6.59012 18.1313 6.55084 18.125 6.5113 18.125H6ZM0.375 21.5C0.375 18.3934 2.8934 15.875 6 15.875H6.5113C6.78804 15.875 7.06304 15.9188 7.32611 16.0047L8.62438 16.4286C10.8178 17.1448 13.1822 17.1448 15.3756 16.4286L16.6739 16.0047C16.937 15.9188 17.212 15.875 17.4887 15.875H18C21.1066 15.875 23.625 18.3934 23.625 21.5V23.2824C23.625 24.4123 22.8062 25.3756 21.6911 25.5577C15.2729 26.6056 8.72715 26.6056 2.30891 25.5577C1.19383 25.3756 0.375 24.4123 0.375 23.2824V21.5Z" fill="#002856"/>
</svg>
