<svg width="27" height="27" viewBox="0 0 27 27" fill="none" xmlns="http://www.w3.org/2000/svg">
<path fill-rule="evenodd" clip-rule="evenodd" d="M3.76047 10.7846C6.44144 16.6224 11.2122 21.2637 17.1428 23.7785L17.1615 23.7865L18.3073 24.2972C19.7662 24.9472 21.481 24.4855 22.4164 23.1909L24.328 20.5453C24.4448 20.3837 24.4147 20.159 24.2595 20.0338L20.9224 17.3416C20.7565 17.2078 20.5126 17.2389 20.3857 17.4102L19.0868 19.1628C18.7714 19.5884 18.2018 19.7363 17.7192 19.5179C13.2846 17.511 9.72099 13.9474 7.71409 9.51279C7.49567 9.03015 7.64357 8.46052 8.06919 8.1451L9.82176 6.84631C9.99301 6.7194 10.0242 6.47546 9.89035 6.30956L7.19779 2.972C7.07264 2.81688 6.84802 2.78675 6.68643 2.90341L4.02649 4.82364C2.7233 5.76442 2.26437 7.49369 2.92956 8.95687L3.75957 10.7826C3.75987 10.7833 3.76017 10.7839 3.76047 10.7846ZM16.2549 25.846C9.81091 23.1106 4.62787 18.0661 1.7148 11.7214L1.71305 11.7176L0.881292 9.88805C-0.227358 7.44943 0.537534 4.56732 2.70951 2.99934L5.36944 1.07911C6.50063 0.262496 8.07297 0.473403 8.94896 1.55924L11.6415 4.89681C12.5784 6.05806 12.3602 7.76566 11.1614 8.65402L10.1572 9.39825C11.8535 12.6898 14.5421 15.3784 17.8337 17.0748L18.5779 16.0705C19.4663 14.8718 21.1739 14.6536 22.3351 15.5904L25.6723 18.2826C26.7584 19.1589 26.9691 20.7318 26.1518 21.863L24.2402 24.5086C22.6812 26.6663 19.8231 27.4358 17.3916 26.3524L16.2549 25.846Z" fill="#002856"/>
</svg>
