<svg width="30" height="24" viewBox="0 0 30 24" fill="none" xmlns="http://www.w3.org/2000/svg">
<path fill-rule="evenodd" clip-rule="evenodd" d="M1.20556 6.52976C0.785342 10.4341 0.804073 14.9371 1.38881 18.8256C1.71235 20.9772 3.46836 22.6266 5.63596 22.8151L7.90131 23.012C12.6249 23.4226 17.3752 23.4226 22.0987 23.012L24.3641 22.8151C26.5317 22.6266 28.2877 20.9772 28.6112 18.8256C29.196 14.9371 29.2147 10.4344 28.7945 6.53C28.7402 6.07735 28.6791 5.62532 28.6112 5.17405C28.2877 3.02246 26.5317 1.37299 24.3641 1.18457L22.0987 0.987646C17.3752 0.577035 12.6249 0.577035 7.90131 0.987646L5.63596 1.18457C3.46836 1.37299 1.71235 3.02246 1.38881 5.17405C1.32096 5.62524 1.25988 6.0772 1.20556 6.52976ZM8.09616 3.22919C12.6901 2.82985 17.31 2.82985 21.9039 3.22919L24.1692 3.42612C25.3007 3.52447 26.2174 4.3855 26.3863 5.50863C26.4038 5.62527 26.4209 5.74196 26.4375 5.8587L18.0959 10.4929C16.1706 11.5625 13.8294 11.5625 11.904 10.4929L3.56259 5.85875C3.57918 5.74199 3.59625 5.62529 3.61379 5.50863C3.78268 4.3855 4.69932 3.52447 5.83082 3.42612L8.09616 3.22919ZM26.7128 8.27965C27.0037 11.6813 26.8949 15.1086 26.3863 18.491C26.2174 19.6141 25.3007 20.4751 24.1692 20.5735L21.9039 20.7704C17.31 21.1698 12.6901 21.1698 8.09617 20.7704L5.83082 20.5735C4.69932 20.4751 3.78268 19.6141 3.61379 18.491C3.10516 15.1086 2.99632 11.6813 3.28727 8.2797L10.8113 12.4597C13.4162 13.9069 16.5837 13.9069 19.1886 12.4597L26.7128 8.27965Z" fill="white"/>
</svg>
