<svg width="18" height="18" viewBox="0 0 18 18" fill="none" xmlns="http://www.w3.org/2000/svg">
<path fill-rule="evenodd" clip-rule="evenodd" d="M7.78937 6.26756C7.6156 6.1633 7.39917 6.16057 7.22283 6.26041C7.04648 6.36026 6.93747 6.54725 6.93747 6.7499V11.2499C6.93747 11.4526 7.04648 11.6395 7.22283 11.7394C7.39917 11.8392 7.6156 11.8365 7.78937 11.7322L11.5394 9.48224C11.7088 9.38058 11.8125 9.19749 11.8125 8.9999C11.8125 8.80232 11.7088 8.61922 11.5394 8.51756L7.78937 6.26756ZM10.1567 8.9999L8.06247 10.2564V7.74338L10.1567 8.9999Z" fill="white"/>
<path fill-rule="evenodd" clip-rule="evenodd" d="M12.773 3.48086C10.2615 3.28437 7.7385 3.28437 5.22701 3.48086L3.54648 3.61234C2.52456 3.69229 1.68854 4.45819 1.51961 5.46922C1.12904 7.8068 1.12904 10.193 1.51961 12.5306C1.68854 13.5416 2.52456 14.3075 3.54648 14.3875L5.22701 14.5189C7.73849 14.7154 10.2615 14.7154 12.773 14.5189L14.4535 14.3875C15.4754 14.3075 16.3114 13.5416 16.4804 12.5306C16.8709 10.193 16.8709 7.8068 16.4804 5.46922C16.3114 4.45819 15.4754 3.69229 14.4535 3.61234L12.773 3.48086ZM5.31475 4.60243C7.76783 4.41052 10.2322 4.41052 12.6852 4.60243L14.3658 4.73391C14.8725 4.77355 15.287 5.15332 15.3707 5.65462C15.7408 7.86946 15.7408 10.1303 15.3707 12.3452C15.287 12.8465 14.8725 13.2262 14.3658 13.2659L12.6852 13.3974C10.2322 13.5893 7.76783 13.5893 5.31475 13.3974L3.63423 13.2659C3.12752 13.2262 2.71299 12.8465 2.62923 12.3452C2.25917 10.1303 2.25917 7.86946 2.62923 5.65462C2.71299 5.15332 3.12752 4.77355 3.63423 4.73391L5.31475 4.60243Z" fill="white"/>
</svg>
